<svg width="21" height="21" viewBox="0 0 21 21" fill="none" xmlns="http://www.w3.org/2000/svg">
<g clip-path="url(#clip0_193_10745)">
<path d="M15.1476 3.20599C15.1041 3.39429 15.0866 3.56413 15.0245 3.71366C14.1451 5.84484 13.2585 7.97122 12.376 10.1011C11.1816 12.9689 9.99027 15.838 8.80118 18.7062C8.61363 19.1579 8.43507 19.2317 7.98337 19.0441C7.23572 18.7337 6.48678 18.4264 5.73914 18.1159C5.37466 17.9646 5.28357 17.7442 5.4375 17.3734C7.48546 12.4368 9.54185 7.50177 11.5836 2.56251C11.8763 1.85316 12.0127 1.771 12.7285 2.09198C13.3928 2.38786 14.0734 2.64856 14.7415 2.93509C14.8754 2.99071 14.9896 3.09838 15.1476 3.20599ZM12.3727 7.03915C12.835 5.93455 13.2938 4.83397 13.7535 3.7356C13.361 3.57262 12.9489 3.39968 12.5564 3.2367C12.0976 4.33728 11.6406 5.44226 11.1921 6.51791C11.5941 6.69762 12.0068 6.87808 12.3727 7.03915Z" fill="#FF5A5F"/>
<path d="M7.09569 8.72462C6.78543 8.35475 6.5069 8.04918 6.26 7.72022C6.13408 7.55289 5.99807 7.51103 5.80169 7.5354C5.40048 7.58247 4.9951 7.6132 4.57112 7.60516C4.89318 7.33531 5.20847 7.05534 5.5426 6.79598C5.6831 6.68632 5.72434 6.57379 5.70467 6.40127C5.65784 5.9819 5.62696 5.56367 5.58548 5.06983C5.9164 5.46472 6.19043 5.80311 6.48156 6.1267C6.54886 6.20212 6.68372 6.25994 6.78465 6.25437C7.22247 6.23346 7.65689 6.18557 8.16707 6.13992C7.77918 6.46279 7.45416 6.74419 7.12055 7.01108C6.99808 7.10814 6.95577 7.20562 6.97219 7.364C7.02357 7.7944 7.05368 8.22326 7.09569 8.72462Z" fill="#FF5A5F"/>
<path d="M2.76069 5.54559C2.92437 5.72312 3.05831 5.9723 3.25988 6.05418C3.45523 6.13346 3.72263 6.04361 4.02449 6.02469C3.85381 6.16748 3.73421 6.28399 3.59889 6.3812C3.45787 6.48335 3.40248 6.59914 3.43462 6.77683C3.46426 6.92975 3.46433 7.09231 3.43095 7.27384C3.32728 7.1541 3.21661 7.04241 3.12965 6.91317C3.02334 6.75581 2.89614 6.7103 2.71533 6.74114C2.55618 6.76819 2.39363 6.76826 2.20745 6.75487C2.7071 6.48389 2.90473 6.10028 2.6831 5.53894C2.70749 5.54176 2.73409 5.54368 2.76069 5.54559Z" fill="#FF5A5F"/>
<path d="M8.66573 5.15666C8.36322 4.64939 7.97688 4.44515 7.42761 4.67727C7.43388 4.605 7.431 4.58555 7.4367 4.58061C7.60853 4.42186 7.85733 4.29325 7.93662 4.0979C8.0159 3.90256 7.92476 3.63827 7.91098 3.3988C7.9416 3.40421 7.96106 3.40134 7.9647 3.41015C8.24003 3.86414 8.61094 4.07475 9.18321 3.87958C8.69593 4.18674 8.45081 4.56158 8.66573 5.15666Z" fill="#FF5A5F"/>
<path d="M16.4155 8.08382C16.1779 7.52134 15.7601 7.39718 15.2235 7.52861C15.4028 7.36934 15.6538 7.23981 15.7432 7.03771C15.8287 6.84495 15.7442 6.57793 15.7306 6.27645C15.8589 6.42471 15.9673 6.52447 16.0475 6.64359C16.166 6.82429 16.3137 6.88197 16.5223 6.83709C16.6645 6.80668 16.813 6.80987 17.0258 6.79417C16.857 6.94137 16.7405 7.05918 16.6078 7.15016C16.4636 7.25101 16.406 7.36771 16.4373 7.5432C16.4656 7.69923 16.4679 7.86088 16.4821 8.02017C16.458 8.04304 16.4383 8.06408 16.4155 8.08382Z" fill="#FF5A5F"/>
</g>
<defs>
<clipPath id="clip0_193_10745">
<rect width="14.9618" height="14.7639" fill="white" transform="translate(0.660156 6.37427) rotate(-22.451)"/>
</clipPath>
</defs>
</svg>
